PathFileType	4	(X/Y/Z)	C:/Users/beibeiliu/ov580/test_trc/User2\sequence.9_training_dense_left.trc
DataRate	CameraRate	NumFrames	NumMarkers	Units	OrigDataRate	OrigDataStartFrame	OrigNumFrames
120	120	8	19	mm	120	265	353
Frame#	Time	ThumbCMC			ThumbMCP			ThumbIP			ThumbTip			IndexMCP			IndexPIP			IndexTip			MiddleMCP			MiddlePIP			MiddleTip			RingMCP			RingPIP			RingTip			PinkyMCP			PinkyPIP			PinkyTip			BackHand1			BackHand2			BackHand3	
		X0	Y0	Z0	X1	Y1	Z1	X2	Y2	Z2	X3	Y3	Z3	X4	Y4	Z4	X5	Y5	Z5	X6	Y6	Z6	X7	Y7	Z7	X8	Y8	Z8	X9	Y9	Z9	X10	Y10	Z10	X11	Y11	Z11	X12	Y12	Z12	X13	Y13	Z13	X14	Y14	Z14	X15	Y15	Z15	X16	Y16	Z16	X17	Y17	Z17	X18	Y18	Z18	
264	2.2	-127.234	21.1986	115.733	-106.98	9.31259	96.064	-92.5726	-10.1609	64.1791	-81.8812	-23.6723	52.0293	-157.131	-16.6097	39.7887	-157.416	-33.1295	20.7533	-167.368	-50.671	0.799444	-180.534	-22.7445	36.5193	-181.23	-43.8621	17.4193	-187.225	-63.8858	-4.60604	-196.759	-21.9143	49.7424	-198.188	-43.4518	30.9168	-199.139	-63.8512	12.6071	-212.675	-20.5921	66.3158	-213.815	-37.3102	50.588	-212.709	-53.5339	33.4292	-189.694	20.4908	90.5648	-188.139	41.5063	114.821	-155.708	34.775	95.4909	
265	2.20833	-124.289	21.1151	112.141	-109.082	10.629	94.2497	-91.7242	-0.801815	65.1769	-85.0073	-13.746	45.4328	-154.858	4.66617	37.7683	-159.965	-9.023	7.97135	-168.42	-20.3359	-11.5693	-176.463	1.49932	31.9168	-184.608	-14.721	8.62657	-190.214	-29.4566	-19.8266	-194.341	-2.67234	39.1677	-202.757	-18.6201	19.1762	-202.202	-35.0146	-1.71299	-211.881	-1.12001	60.6187	-213.736	-18.3555	35.9571	-214.483	-30.6378	16.0593	-190.094	33.7559	91.7159	-186.288	48.4059	116.877	-151.039	41.1884	97.4905	
266	2.21667	-125.656	23.0103	110.585	-111.958	15.9073	87.8049	-96.4805	8.65536	58.6435	-89.4048	-0.119263	35.8767	-155.218	27.3603	33.8469	-158.091	22.9418	5.93992	-166.745	16.0281	-20.015	-179.759	27.9869	27.3713	-184.755	18.6486	-1.31672	-192.352	11.7264	-33.4628	-194.641	23.8526	35.152	-202.217	13.1519	11.2407	-206.401	1.11287	-19.3665	-211.229	19.8751	52.3868	-216.503	10.9164	27.1266	-214.488	3.23449	4.98547	-188.309	45.3751	89.015	-187.188	52.5837	122.961	-150.973	47.6508	101.562	
267	2.225	-126.939	26.9865	108.14	-110.462	23.643	82.2324	-102.168	17.877	53.0005	-91.068	13.347	28.1537	-154.237	45.1498	31.4509	-160.875	44.3203	-0.0728487	-172.952	42.9832	-26.5435	-179.054	47.2738	22.2723	-185.29	43.4982	-2.87456	-191.518	42.8013	-35.0953	-199.29	44.2155	35.0468	-203.6	38.9326	5.3733	-208.215	34.1816	-19.6921	-211.019	37.105	51.5564	-216.341	32.7805	25.6658	-218.129	31.8651	2.51412	-192.402	55.781	91.2437	-186.72	57.7708	125.628	-152.819	53.64	102.403	
268	2.23333	-126.461	32.814	107.316	-114.839	30.057	79.9991	-100.886	28.9561	45.2992	-94.7724	22.2489	26.3218	-154.731	53.3929	24.8993	-161.885	54.3083	2.7485	-175.107	54.4668	-27.8394	-181.618	56.6841	22.718	-189.907	54.5129	-7.8671	-194.885	54.4427	-32.5606	-201.642	52.5964	32.5772	-204.885	49.2206	6.56799	-209.994	46.7334	-18.6672	-217.31	46.2557	49.8814	-217.809	42.3473	25.6993	-220.96	42.367	-0.935811	-191.622	62.3614	91.0983	-184.175	63.2384	125.429	-154.853	61.332	97.9933	
269	2.24167	-124.223	35.66	107.941	-111.153	32.3344	77.9387	-102.9	28.0507	47.331	-94.0624	22.2914	21.2943	-157.62	50.0816	27.2879	-167.779	49.6525	0.776352	-176.501	47.2113	-26.3613	-184.263	53.8917	25.0806	-191.622	49.1643	-3.50603	-200.064	47.263	-32.8238	-199.326	50.4968	28.9785	-207.817	46.3561	3.27105	-216.694	44.3277	-23.4461	-216.684	44.9068	52.1751	-221.051	39.658	26.086	-224.882	39.3316	4.27939	-190.882	61.6008	90.4091	-181.434	68.5339	121.12	-150.379	61.4372	99.4086	
270	2.25	-130.026	36.6297	107.005	-112.525	29.9583	77.5539	-102.354	22.1218	46.8106	-93.9018	13.5042	27.3457	-161.356	39.6493	25.2967	-173.074	33.1503	1.66682	-181.557	27.6052	-23.1887	-184.43	39.8068	19.75	-194.342	31.6133	-3.31327	-203.976	23.5377	-35.0263	-202.14	38.1102	30.9928	-212.98	31.0613	9.8456	-216.902	23.3099	-21.8452	-217.558	34.0762	53.952	-219.612	25.1255	30.8515	-227.237	22.4277	3.26469	-192.77	58.1451	87.5778	-185.198	66.7034	118.631	-154.435	62.7151	95.2181	
271	2.25833	-128.201	38.9266	104.876	-111.881	28.6882	77.679	-101.235	16.7707	49.4984	-96.3773	4.89828	30.2319	-163.295	21.5349	24.4478	-171.518	9.0314	3.29276	-185.625	-1.31279	-19.852	-188.93	18.6585	22.7672	-192.479	5.72986	1.57927	-202.627	-6.90561	-23.3564	-203.765	18.0451	37.1482	-210.54	4.20566	12.8541	-219.528	-7.90117	-10.1164	-216.326	15.0365	56.8506	-223.777	0.985584	32.8737	-226.965	-8.78826	10.5576	-197.519	48.4157	84.229	-187.408	65.2258	114.392	-158.261	56.0713	90.5704	
